@startuml
!include style.puml
skinparam arrowThickness 1.1
skinparam arrowColor UI_COLOR_T4
skinparam classBackgroundColor UI_COLOR

package UI <<Rectangle>>{
Interface Ui <<Interface>>
Class "{abstract}\nUiPart" as UiPart
Class UiManager
Class MainWindow
Class HelpWindow
Class ResultDisplay
Class StatusBarFooter
Class CommandBox
package card <<Rectangle>> {
    class XYZcard
}

package Panel <<Rectangle>> {
    class "<<interface>>\n Panel" as Ipanel
    class PanelManager
    class XYZpanel
}
}

package Model <<Rectangle>> {
Class HiddenModel #FFFFFF
}

package Logic <<Rectangle>> {
Class HiddenLogic #FFFFFF
}

Class HiddenOutside #FFFFFF
HiddenOutside ..> Ui

UiManager .left.|> Ui
UiManager -down-> "1" MainWindow
MainWindow *-down->  "1" CommandBox
MainWindow *-down-> "1" ResultDisplay
MainWindow *-down-> "1" Ipanel
MainWindow *-down-> "1" StatusBarFooter
MainWindow --> "0..1" HelpWindow

XYZpanel -down-> "*" XYZcard

PanelManager -up-|> Ipanel
PanelManager *-down-> XYZpanel

MainWindow -left-|> UiPart

ResultDisplay --|> UiPart
CommandBox --|> UiPart
Ipanel --|> UiPart
StatusBarFooter --|> UiPart
HelpWindow --|> UiPart

UiManager -right-> Logic
MainWindow -left-> Logic

HelpWindow -[hidden]left- CommandBox
CommandBox -[hidden]left- ResultDisplay
ResultDisplay -[hidden]left- StatusBarFooter

MainWindow -[hidden]-|> UiPart
@enduml
